<?xml version="1.0" encoding="UTF-8" standalone="no"?>
<!DOCTYPE svg PUBLIC "-//W3C//DTD SVG 1.1//EN" "http://www.w3.org/Graphics/SVG/1.1/DTD/svg11.dtd">
<svg width="100%" height="100%" viewBox="0 0 1546 1296" version="1.1" xmlns="http://www.w3.org/2000/svg" xmlns:xlink="http://www.w3.org/1999/xlink" xml:space="preserve" xmlns:serif="http://www.serif.com/" style="fill-rule:evenodd;clip-rule:evenodd;stroke-linecap:round;stroke-linejoin:round;">
    <g transform="matrix(-1,0,0,1,1240.95,-35.5662)">
        <path d="M1063.8,527L925.8,527C918.2,527 912,520.8 912,513.2L912,416.1C912,408.5 918.2,402.3 925.8,402.3L963.1,402.3C968,402.3 972.5,404.9 975,409.1L979.3,416.4C981.8,420.6 986.3,423.2 991.2,423.2L1063.9,423.2C1071.5,423.2 1077.7,429.4 1077.7,437L1077.7,513.2C1077.7,520.8 1071.5,527 1063.8,527Z" style="fill:rgb(97,189,255);fill-rule:nonzero;"/>
    </g>
    <g>
        <g transform="matrix(-1,0,0,1,1240.95,-35.5662)">
            <path d="M488.7,757.1L725.7,757.1C742.7,757.1 756.6,770.9 756.6,788L756.6,1025C756.6,1042 742.8,1055.9 725.7,1055.9L488.7,1055.9C471.7,1055.9 457.8,1042.1 457.8,1025L457.8,788C457.8,770.9 471.6,757.1 488.7,757.1Z" style="fill:rgb(97,189,255);fill-rule:nonzero;"/>
        </g>
        <g transform="matrix(-1,0,0,1,1240.95,-35.5662)">
            <path d="M496.7,998.5L717.6,998.5" style="fill:none;fill-rule:nonzero;stroke:white;stroke-width:4px;"/>
        </g>
        <g transform="matrix(-1,0,0,1,1240.95,-35.5662)">
            <path d="M496.7,998.5L496.7,822.6" style="fill:none;fill-rule:nonzero;stroke:white;stroke-width:4px;"/>
        </g>
        <g transform="matrix(-1,0,0,1,1240.95,-35.5662)">
            <path d="M486.5,901.3C525.4,901.3 522.3,954.5 549.9,954.5C590.8,954.5 598,841 644,841C690,841 683.9,905.4 715.6,905.4" style="fill:none;fill-rule:nonzero;stroke:rgb(44,80,91);stroke-width:4px;"/>
        </g>
        <g transform="matrix(-1,0,0,1,1240.95,-35.5662)">
            <path d="M606.1,889.1C615.16,889.1 622.5,881.76 622.5,872.7C622.5,863.64 615.16,856.3 606.1,856.3C597.04,856.3 589.7,863.64 589.7,872.7C589.7,881.76 597.04,889.1 606.1,889.1Z" style="fill:white;fill-rule:nonzero;"/>
        </g>
        <g transform="matrix(-1,0,0,1,1240.95,-35.5662)">
            <path d="M537.6,997.5L537.6,988.3" style="fill:none;fill-rule:nonzero;stroke:white;stroke-width:4px;"/>
        </g>
        <g transform="matrix(-1,0,0,1,1240.95,-35.5662)">
            <path d="M578.5,997.5L578.5,988.3" style="fill:none;fill-rule:nonzero;stroke:white;stroke-width:4px;"/>
        </g>
        <g transform="matrix(-1,0,0,1,1240.95,-35.5662)">
            <path d="M619.4,997.5L619.4,988.3" style="fill:none;fill-rule:nonzero;stroke:white;stroke-width:4px;"/>
        </g>
        <g transform="matrix(-1,0,0,1,1240.95,-35.5662)">
            <path d="M660.3,997.5L660.3,988.3" style="fill:none;fill-rule:nonzero;stroke:white;stroke-width:4px;"/>
        </g>
        <g transform="matrix(-1,0,0,1,1240.95,-35.5662)">
            <path d="M701.3,997.5L701.3,988.3" style="fill:none;fill-rule:nonzero;stroke:white;stroke-width:4px;"/>
        </g>
    </g>
    <g>
        <g transform="matrix(-1,0,0,1,1240.95,-35.5662)">
            <path d="M328.49,599.45C319.61,599.44 311.09,595.91 304.81,589.63C298.53,583.35 295,574.83 294.99,565.96L294.99,248.49C295,239.62 298.53,231.1 304.81,224.82C311.09,218.54 319.61,215.01 328.49,215L740.36,215C749.24,215.01 757.75,218.54 764.03,224.82C770.31,231.1 773.84,239.62 773.86,248.49L773.86,565.96C773.84,574.83 770.31,583.35 764.03,589.63C757.75,595.91 749.24,599.44 740.36,599.45L328.49,599.45Z" style="fill:rgb(206,206,206);fill-rule:nonzero;"/>
        </g>
        <g transform="matrix(-1,0,0,1,1240.95,-35.5662)">
            <path d="M295.01,286.96L775.33,286.96" style="fill:none;fill-rule:nonzero;stroke:rgb(225,225,225);stroke-width:4px;stroke-linecap:butt;stroke-linejoin:miter;"/>
        </g>
        <g transform="matrix(-1,0,0,1,1240.95,-35.5662)">
            <path d="M330.23,262.98C337.27,262.98 342.97,257.28 342.97,250.24C342.97,243.2 337.27,237.5 330.23,237.5C323.2,237.5 317.49,243.2 317.49,250.24C317.49,257.28 323.2,262.98 330.23,262.98Z" style="fill:rgb(225,225,225);fill-rule:nonzero;"/>
        </g>
        <g transform="matrix(-1,0,0,1,1240.95,-35.5662)">
            <path d="M368.84,262.98C375.87,262.98 381.58,257.28 381.58,250.24C381.58,243.2 375.87,237.5 368.84,237.5C361.8,237.5 356.1,243.2 356.1,250.24C356.1,257.28 361.8,262.98 368.84,262.98Z" style="fill:rgb(225,225,225);fill-rule:nonzero;"/>
        </g>
        <g transform="matrix(-1,0,0,1,1240.95,-35.5662)">
            <path d="M407.43,262.98C414.47,262.98 420.17,257.28 420.17,250.24C420.17,243.2 414.47,237.5 407.43,237.5C400.4,237.5 394.7,243.2 394.7,250.24C394.7,257.28 400.4,262.98 407.43,262.98Z" style="fill:rgb(225,225,225);fill-rule:nonzero;"/>
        </g>
    </g>
    <g>
        <g transform="matrix(-1,0,0,1,1240.95,-35.5662)">
            <rect x="373.8" y="384.45" width="51.8" height="161.26" style="fill:rgb(97,189,255);fill-rule:nonzero;"/>
        </g>
        <g transform="matrix(-1,0,0,1,1240.95,-35.5662)">
            <rect x="561.21" y="360.88" width="51.81" height="184.83" style="fill:rgb(160,207,255);fill-rule:nonzero;"/>
        </g>
        <g transform="matrix(-1,0,0,1,1240.95,-35.5662)">
            <rect x="467.44" y="326.82" width="51.81" height="218.89" style="fill:rgb(44,80,91);fill-rule:nonzero;"/>
        </g>
        <g transform="matrix(-1,0,0,1,1240.95,-35.5662)">
            <rect x="654.86" y="452.58" width="51.81" height="93.13" style="fill:rgb(44,80,91);fill-rule:nonzero;"/>
        </g>
        <g transform="matrix(-1,0,0,1,1240.95,-35.5662)">
            <path d="M347.89,545.71L732.57,545.71" style="fill:none;fill-rule:nonzero;stroke:black;stroke-width:4px;"/>
        </g>
    </g>
    <g>
        <g transform="matrix(1,0,0,1,-1.18457,22.0382)">
            <path d="M993.5,616.9L1217.6,616.9C1229.1,616.9 1238.5,626.3 1238.5,637.8L1238.5,894.7C1238.5,906.2 1229.1,915.6 1217.6,915.6L993.5,915.6C982,915.6 972.6,906.2 972.6,894.7L972.6,637.8C972.6,626.2 982,616.9 993.5,616.9Z" style="fill:rgb(160,207,255);fill-rule:nonzero;"/>
        </g>
        <g transform="matrix(1,0,0,1,-1.18457,22.0382)">
            <path d="M1020.3,682.9L1029.5,692.1L1044.4,677.3" style="fill:none;fill-rule:nonzero;stroke:white;stroke-width:4px;"/>
        </g>
        <g transform="matrix(1,0,0,1,-1.18457,22.0382)">
            <path d="M1038.22,772.62C1042.85,769.41 1044,763.06 1040.8,758.43C1037.59,753.79 1031.24,752.64 1026.61,755.85C1021.97,759.05 1020.82,765.41 1024.02,770.04C1027.23,774.67 1033.59,775.83 1038.22,772.62Z" style="fill:none;fill-rule:nonzero;stroke:white;stroke-width:4px;"/>
        </g>
        <g transform="matrix(1,0,0,1,-1.18457,22.0382)">
            <path d="M1038.21,852.02C1042.84,848.81 1044,842.46 1040.79,837.83C1037.59,833.2 1031.23,832.04 1026.6,835.25C1021.97,838.45 1020.81,844.81 1024.02,849.44C1027.23,854.07 1033.58,855.23 1038.21,852.02Z" style="fill:none;fill-rule:nonzero;stroke:white;stroke-width:4px;"/>
        </g>
        <g transform="matrix(1,0,0,1,-1.18457,22.0382)">
            <path d="M1073.3,686.6L1166.3,686.6" style="fill:none;fill-rule:nonzero;stroke:rgb(44,80,91);stroke-width:4px;"/>
        </g>
        <g transform="matrix(1,0,0,1,-1.18457,22.0382)">
            <path d="M1073.3,764.3L1166.3,764.3" style="fill:none;fill-rule:nonzero;stroke:rgb(44,80,91);stroke-width:4px;"/>
        </g>
        <g transform="matrix(1,0,0,1,-1.18457,22.0382)">
            <path d="M1073.3,843L1166.3,843" style="fill:none;fill-rule:nonzero;stroke:rgb(44,80,91);stroke-width:4px;"/>
        </g>
    </g>
    <g>
        <g transform="matrix(1,0,0,1,-1.18457,22.0382)">
            <path d="M1209.72,503.13C1189.19,562.32 1151.68,562.32 1166.45,617L1224.49,617C1240.52,591.86 1223.65,462.9 1209.72,503.13Z" style="fill:rgb(23,21,28);fill-rule:nonzero;"/>
        </g>
        <g transform="matrix(1,0,0,1,-1.18457,22.0382)">
            <path d="M1204.06,607.15C1204.17,607.15 1204.17,607.26 1204.17,607.26C1203.33,609.25 1195.26,630.41 1218.73,632.92C1246.7,635.86 1265.87,603.07 1266.71,601.6L1266.81,601.6C1268.7,601.6 1321.91,600.55 1341.61,628.21L1341.61,628.31C1298.24,695.36 1208.67,714.32 1141.73,670.95C1130.31,663.62 1119.94,654.71 1111.14,644.55L1111.14,644.45C1143.93,608.93 1200.6,607.26 1204.06,607.15Z" style="fill:rgb(97,189,255);fill-rule:nonzero;"/>
        </g>
        <g transform="matrix(1,0,0,1,-1.18457,22.0382)">
            <path d="M1156.29,521.25C1156.92,515.7 1157.55,507.53 1158.49,499.36C1158.91,496.21 1162.58,493.28 1163.1,490.14C1164.88,479.56 1165.72,473.8 1170.33,468.77C1179.76,458.19 1200.81,448.34 1225.33,450.96C1249.11,453.47 1268.28,469.29 1269.12,502.6C1269.53,519.37 1269.43,545.76 1269.22,566.72C1269.01,585.15 1268.8,599.4 1268.8,599.4C1268.8,599.4 1266.92,650.1 1231.4,655.66C1194.95,661.31 1199.56,604.95 1199.56,604.95L1199.56,580.96C1199.56,580.96 1179.02,589.55 1162.68,578.24C1145.71,566.51 1154.72,536.02 1156.29,521.25Z" style="fill:rgb(244,158,115);fill-rule:nonzero;"/>
        </g>
        <g transform="matrix(1,0,0,1,-1.18457,22.0382)">
            <path d="M1199.56,598.25L1199.56,581.07C1199.56,581.07 1199.56,580.96 1199.66,580.96C1200.39,580.75 1207.52,578.24 1214.75,574.36C1214.85,574.36 1214.96,574.47 1214.85,574.47L1199.77,598.25C1199.66,598.35 1199.56,598.35 1199.56,598.25Z" style="fill:rgb(23,23,23);fill-opacity:0.2;fill-rule:nonzero;"/>
        </g>
        <g transform="matrix(1,0,0,1,-1.18457,22.0382)">
            <path d="M1159.85,490.24C1161.63,479.66 1164.15,471.39 1168.76,466.36C1178.19,455.78 1200.81,444.88 1225.33,447.5C1249.11,450.02 1266.6,459.55 1280.43,499.67C1300.96,558.86 1338.78,558.86 1324.01,613.44L1323.9,613.54L1239.36,613.54C1223.86,589.03 1233.29,561.37 1233.71,560.12L1233.81,560.01C1235.07,559.49 1266.08,545.76 1258.85,525.86C1251.1,504.91 1220.93,522.4 1219.15,523.56L1219.04,523.56C1211.81,511.93 1219.04,493.6 1220.09,490.98C1220.09,490.87 1219.98,490.77 1219.88,490.87C1217.78,492.34 1204.48,501.14 1194,503.23C1169.49,508.16 1159.22,500.09 1158.49,499.46L1158.49,499.36C1158.91,495.8 1159.33,493.18 1159.85,490.24Z" style="fill:rgb(23,21,28);fill-rule:nonzero;"/>
        </g>
        <g transform="matrix(1,0,0,1,-1.18457,22.0382)">
            <path d="M1238.53,533.72L1229.62,539.37" style="fill:none;fill-rule:nonzero;stroke:rgb(23,23,23);stroke-width:4px;"/>
        </g>
        <g transform="matrix(1,0,0,1,-1.18457,22.0382)">
            <path d="M1174.83,534.87C1173.89,536.55 1172.53,539.16 1172.84,540.84C1173.16,541.89 1174,542.73 1174.94,543.25" style="fill:none;fill-rule:nonzero;stroke:rgb(23,23,23);stroke-width:4px;"/>
        </g>
        <g transform="matrix(1,0,0,1,-1.18457,22.0382)">
            <path d="M1184.05,548.17C1183.84,551.32 1181.12,553.62 1177.98,553.31L1177.77,553.31" style="fill:none;fill-rule:nonzero;stroke:rgb(23,23,23);stroke-width:4px;"/>
        </g>
        <g transform="matrix(1,0,0,1,-1.18457,22.0382)">
            <path d="M1197.98,581.58C1204.38,579.59 1215.06,572.68 1215.06,572.68" style="fill:none;fill-rule:nonzero;stroke:rgb(23,23,23);stroke-width:4px;"/>
        </g>
        <g transform="matrix(1,0,0,1,-1.18457,22.0382)">
            <path d="M1191.07,527.54C1189.45,527.54 1188.14,526.22 1188.14,524.6C1188.14,522.98 1189.45,521.67 1191.07,521.67C1192.69,521.67 1194,522.98 1194,524.6C1194,526.22 1192.69,527.54 1191.07,527.54Z" style="fill:rgb(23,21,28);fill-rule:nonzero;"/>
        </g>
        <g transform="matrix(1,0,0,1,-1.18457,22.0382)">
            <path d="M1164.15,524.59C1162.52,524.59 1161.21,523.28 1161.21,521.66C1161.21,520.05 1162.52,518.73 1164.15,518.73C1165.76,518.73 1167.08,520.05 1167.08,521.66C1167.08,523.28 1165.76,524.59 1164.15,524.59Z" style="fill:rgb(23,21,28);fill-rule:nonzero;"/>
        </g>
        <g transform="matrix(1,0,0,1,-1.18457,22.0382)">
            <path d="M1236.01,573.73C1229.71,573.73 1224.59,568.62 1224.59,562.32C1224.59,556.01 1229.71,550.9 1236.01,550.9C1242.32,550.9 1247.43,556.01 1247.43,562.32C1247.43,568.62 1242.32,573.73 1236.01,573.73Z" style="fill:rgb(125,201,255);fill-rule:nonzero;"/>
        </g>
    </g>
    <g>
        <g transform="matrix(1,0,0,1,-1.18457,22.0382)">
            <path d="M1326.57,417.39L1273.82,417.39C1254.43,417.39 1238.66,433.16 1238.66,452.56C1238.66,469.82 1251.2,484.49 1268.23,487.25L1268.23,505.3L1294.01,487.72L1326.57,487.72C1345.96,487.72 1361.73,471.95 1361.73,452.56C1361.73,433.08 1345.96,417.39 1326.57,417.39Z" style="fill:rgb(44,80,91);fill-rule:nonzero;"/>
        </g>
        <g transform="matrix(-1,0,0,1,2250.73,752.79)">
            <path d="M1280.45,456.81C1283.1,456.81 1285.26,454.66 1285.26,452C1285.26,449.35 1283.1,447.19 1280.45,447.19C1277.79,447.19 1275.64,449.35 1275.64,452C1275.64,454.66 1277.79,456.81 1280.45,456.81Z" style="fill:white;fill-rule:nonzero;"/>
        </g>
        <g transform="matrix(-1,0,0,1,2250.73,752.79)">
            <path d="M1300.16,456.81C1302.81,456.81 1304.97,454.66 1304.97,452C1304.97,449.35 1302.81,447.19 1300.16,447.19C1297.5,447.19 1295.35,449.35 1295.35,452C1295.35,454.66 1297.5,456.81 1300.16,456.81Z" style="fill:white;fill-rule:nonzero;"/>
        </g>
        <g transform="matrix(-1,0,0,1,2250.73,752.79)">
            <path d="M1319.95,456.81C1322.6,456.81 1324.76,454.66 1324.76,452C1324.76,449.35 1322.6,447.19 1319.95,447.19C1317.29,447.19 1315.14,449.35 1315.14,452C1315.14,454.66 1317.29,456.81 1319.95,456.81Z" style="fill:white;fill-rule:nonzero;"/>
        </g>
    </g>
    <g>
        <g transform="matrix(-1,0,0,1,1240.95,-35.5662)">
            <path d="M761.54,1111.84C766.62,1087.3 769.5,1062.42 770.05,1037.76L766.51,1032.57L666.34,1037.21L666.23,1037.76C666.45,1041.19 666.45,1044.51 666.56,1047.72C667.01,1059.21 667.01,1067.84 666.56,1074.8L696.75,1131.74L761.54,1111.84Z" style="fill:rgb(206,164,130);fill-rule:nonzero;"/>
        </g>
        <g transform="matrix(-1,0,0,1,1240.95,-35.5662)">
            <path d="M960,1111.84C961.44,1087.85 960.22,1062.86 956.46,1037.76L955.14,1035.55L853.53,1031.35L853.53,1037.65C855.19,1041.41 856.84,1044.95 858.06,1047.83C862.04,1056.45 865.03,1066.29 867.13,1075.58L894.88,1130.75L960,1111.84Z" style="fill:rgb(206,164,130);fill-rule:nonzero;"/>
        </g>
        <g transform="matrix(-1,0,0,1,1240.95,-35.5662)">
            <path d="M707.56,587.83L829.2,587.83C829.53,597.17 865.8,643.72 874.53,700.55C877.3,718.57 878.85,739.35 880.39,761.25C883.71,807.79 887.58,860.42 905.49,897.35C907.59,901.77 909.69,905.97 911.68,910.06C928.49,944.34 941.65,971.43 948.61,999.07C951.93,1012.11 954.47,1024.83 956.46,1037.76L853.64,1037.88C853.64,1037.88 847.11,1023.61 843.47,1015.54C828.76,982.93 810.52,942.35 796.03,904.09C788.41,883.97 781.44,859.09 775.36,833.77C769.17,855.22 763.86,876.23 761.76,895.14C759.66,914.15 762.42,938.59 765.41,964.46C766.96,978.94 768.72,993.87 769.5,1007.91C770.16,1018.75 770.27,1028.48 770.05,1037.76L666.23,1037.76C665.13,1014.21 662.81,986.91 659.6,948.98C659.05,942.46 658.49,935.6 657.83,928.31C644.78,772.85 694.32,624.81 703.7,599.93L707.56,587.83Z" style="fill:rgb(44,80,91);fill-rule:nonzero;"/>
        </g>
        <g transform="matrix(-1,0,0,1,1240.95,-35.5662)">
            <path d="M761.76,895.14C764.97,866.06 765.08,866.72 775.36,833.77L757.78,743.78C757.78,743.78 757.89,743.89 757.78,743.78C757.78,743.78 743.3,673.13 738.43,711.6C730.91,772.85 761.43,893.92 761.76,895.14Z" style="fill-opacity:0.3;fill-rule:nonzero;"/>
        </g>
        <g transform="matrix(-1,0,0,1,1240.95,-35.5662)">
            <path d="M659.93,953.4C684.59,950.31 703.16,929.3 703.16,904.54C703.16,878 682.37,856.44 655.95,855.33C655.29,880.32 655.84,904.87 657.83,928.31C658.27,933.72 658.71,938.81 659.16,943.79C659.27,946.99 659.82,953.4 659.93,953.4Z" style="fill-rule:nonzero;"/>
        </g>
        <g transform="matrix(-1,0,0,1,1240.95,-35.5662)">
            <path d="M813.83,948.1C830.2,939.69 840.26,923 840.26,904.54C840.26,877.34 818.15,855.33 791.06,855.33C787.74,855.33 784.43,855.67 781.11,856.33C785.86,874.46 790.95,890.49 796.03,903.98C801.01,917.25 806.87,931.62 813.83,948.1Z" style="fill-rule:nonzero;"/>
        </g>
        <g transform="matrix(-1,0,0,1,1240.95,-35.5662)">
            <path d="M776.13,836.87C765.3,792.65 756.01,741.45 749.27,696.9" style="fill:none;fill-rule:nonzero;stroke:black;stroke-width:4px;"/>
        </g>
        <g transform="matrix(-1,0,0,1,1240.95,-35.5662)">
            <path d="M465.78,597.61C467,597.61 468.1,597.28 469.1,596.84C471.75,595.4 473.52,592.52 473.52,589.65C473.52,589.65 481.81,592.08 490.33,592.08C497.29,592.08 502.49,590.53 505.69,587.55C505.69,587.55 505.8,587.44 505.8,587.55C506.8,587.99 518.25,592.56 530.86,597.05L544.83,523.75C514.65,517.31 486.9,516.01 466.33,516.01C425.76,516.01 404.31,518.23 401.1,522.87C400.55,523.53 400.44,524.42 400.77,525.3C403.75,534.37 438.36,536.03 453.02,536.55C438.58,536.03 431.84,540.45 431.51,546.75C431.28,550.51 433.39,554.16 437.59,557.7C437.59,557.7 435.04,560.46 435.38,564.22C435.6,567.21 437.48,569.97 441.01,572.62L444.88,575.28C444.77,575.28 440.02,581.69 448.75,588.77C456.6,594.85 461.8,597.61 465.78,597.61Z" style="fill:rgb(206,164,130);fill-rule:nonzero;"/>
        </g>
        <g transform="matrix(-1,0,0,1,1240.95,-35.5662)">
            <path d="M623.55,618.51C627.65,618.51 631.4,618.29 634.83,617.73C645,616.08 656.72,609 669.66,596.62C680.16,586.55 691.33,572.96 701.17,558.25C701.28,558.03 701.5,558.14 701.61,558.36L704.6,597.83L829.2,597.83L879.07,437.63L874.53,432.98C852.86,411.31 823.56,408.1 807.98,408.1C801.34,408.1 797.14,408.66 797.14,408.66L729.7,411.97C729.47,411.97 702.94,413.3 686.58,429.66C652.74,464.6 616.15,537.24 615.82,538.02C615.48,537.91 582.31,529.61 543.18,523.31L528.69,596.28C551.47,604.69 593.81,618.51 623.55,618.51Z" style="fill:rgb(48,191,255);fill-rule:nonzero;"/>
        </g>
        <g transform="matrix(-1,0,0,1,1240.95,-35.5662)">
            <path d="M704.2,597.64L831.53,597.64" style="fill:none;fill-rule:nonzero;stroke:black;stroke-width:4px;"/>
        </g>
        <g transform="matrix(-1,0,0,1,1240.95,-35.5662)">
            <path d="M680.94,584.45C688.12,576.16 694.98,567.1 701.28,557.59L697.63,513.69L680.94,584.45Z" style="fill:rgb(24,29,31);fill-opacity:0.3;fill-rule:nonzero;"/>
        </g>
        <g transform="matrix(-1,0,0,1,1240.95,-35.5662)">
            <path d="M787.19,597.72L829.2,597.72L845.69,544.75L842.53,540.48L829.26,522L787.19,597.72Z" style="fill:rgb(24,29,31);fill-opacity:0.3;fill-rule:nonzero;"/>
        </g>
        <g transform="matrix(-1,0,0,1,1240.95,-35.5662)">
            <path d="M615.82,538.02L623.11,553.05" style="fill:none;fill-rule:nonzero;stroke:rgb(24,29,31);stroke-width:4px;"/>
        </g>
        <g transform="matrix(-1,0,0,1,1240.95,-35.5662)">
            <path d="M486.01,516.57C486.01,516.57 444.99,538.24 443.78,547.19C442.56,556.81 480.82,544.43 480.82,544.43C480.82,544.43 493.75,562.34 508.02,566.87" style="fill:none;fill-rule:nonzero;stroke:rgb(25,25,25);stroke-width:4px;"/>
        </g>
        <g transform="matrix(-1,0,0,1,1240.95,-35.5662)">
            <path d="M473.63,589.21C473.96,584.01 467.33,579.48 467.33,579.48" style="fill:none;fill-rule:nonzero;stroke:rgb(25,25,25);stroke-width:4px;"/>
        </g>
        <g transform="matrix(-1,0,0,1,1240.95,-35.5662)">
            <path d="M444.99,575.17C455.17,581.14 471.31,585.78 469.21,570.85" style="fill:none;fill-rule:nonzero;stroke:rgb(25,25,25);stroke-width:4px;"/>
        </g>
        <g transform="matrix(-1,0,0,1,1240.95,-35.5662)">
            <path d="M437.7,557.59C442.34,560.79 464.45,575.17 470.76,567.32C477.06,559.47 462.24,550.29 462.24,550.29" style="fill:none;fill-rule:nonzero;stroke:rgb(25,25,25);stroke-width:4px;"/>
        </g>
        <g transform="matrix(-1,0,0,1,1240.95,-35.5662)">
            <path d="M957.35,1143.91C958.56,1132.08 959.45,1121.68 960,1111.84L904.5,1111.84L907.59,1091.28C907.7,1090.61 907.7,1089.84 907.7,1089.18C907.7,1081.22 901.29,1074.8 893.33,1074.8L866.91,1074.8C870.11,1091.72 866.46,1100.9 863.48,1106.31C860.38,1111.84 851.32,1118.14 842.58,1124.34C835.73,1129.09 828.65,1134.07 824.78,1138.38C823.12,1140.26 821.68,1142.69 821.02,1144.46L957.35,1143.91Z" style="fill:rgb(44,80,91);fill-rule:nonzero;"/>
        </g>
        <g transform="matrix(-1,0,0,1,1240.95,-35.5662)">
            <path d="M955.25,1161.6C956.02,1155.63 956.68,1149.77 957.35,1144.02L957.35,1143.8L821.02,1143.8C818.37,1149.32 817.37,1155.51 818.15,1161.49L955.25,1161.6Z" style="fill-rule:nonzero;"/>
        </g>
        <g transform="matrix(-1,0,0,1,1240.95,-35.5662)">
            <path d="M753.69,1144.24C756.67,1133.51 759.33,1122.35 761.54,1111.84L703.16,1111.84L706.26,1091.28C706.37,1090.61 706.37,1089.84 706.37,1089.18C706.37,1081.22 699.95,1074.8 691.99,1074.8L666.56,1074.8C665.46,1090.5 662.25,1097.47 655.62,1106.31C652.08,1111.07 644.56,1116.71 636.6,1122.79C629.53,1128.1 622.23,1133.62 618.03,1138.38C616.37,1140.26 615.48,1141.58 614.6,1143.24L614.27,1144.35L753.69,1144.24Z" style="fill:rgb(44,80,91);fill-rule:nonzero;"/>
        </g>
        <g transform="matrix(-1,0,0,1,1240.95,-35.5662)">
            <path d="M748.6,1161.6C750.48,1155.63 752.25,1149.66 753.8,1143.91L614.38,1143.91C611.72,1149.43 610.73,1155.63 611.5,1161.6L748.6,1161.6Z" style="fill-rule:nonzero;"/>
        </g>
        <g transform="matrix(-1,0,0,1,1240.95,-35.5662)">
            <path d="M860.76,1110.14L873.43,1119.58" style="fill:none;fill-rule:nonzero;stroke:black;stroke-width:4px;"/>
        </g>
        <g transform="matrix(-1,0,0,1,1240.95,-35.5662)">
            <path d="M652.12,1110.4L665.57,1119.58" style="fill:none;fill-rule:nonzero;stroke:black;stroke-width:4px;"/>
        </g>
        <g transform="matrix(-1,0,0,1,1240.95,-35.5662)">
            <path d="M757.23,441.94C791.17,441.94 800.24,409.1 800.35,408.77C800.24,407.88 792.94,329.83 791.28,314.79C787.96,284.38 771.93,283.5 743.07,283.5C738.76,283.5 733.68,274.77 728.81,275.54C704.27,279.19 686.47,281.84 679.5,300.08C676.63,307.38 677.07,317.88 677.4,328.94C677.51,333.03 677.73,337.12 677.73,341.32C677.73,341.32 668.89,346.52 669.11,350.72C669.44,355.59 679.17,360.45 679.17,360.45C679.72,373.94 680.27,387.87 690,397.82C693.87,401.8 701.17,404.12 709.24,404.12C714.77,404.12 720.19,403.02 725.16,401.03L726.27,413.19C726.27,413.52 734.01,441.94 757.23,441.94Z" style="fill:rgb(206,164,130);fill-rule:nonzero;"/>
        </g>
        <g transform="matrix(-1,0,0,1,1240.95,-35.5662)">
            <path d="M740.64,391.74C735.22,403.13 728.81,407.99 726.71,409.32C726.38,409.54 725.94,409.32 725.83,408.88L725.16,401.36C725.16,401.14 725.27,400.92 725.38,400.81L739.76,390.97C740.31,390.64 740.97,391.19 740.64,391.74Z" style="fill:rgb(25,25,25);fill-opacity:0.3;fill-rule:nonzero;"/>
        </g>
        <g transform="matrix(-1,0,0,1,1240.95,-35.5662)">
            <path d="M725.16,401.03C729.47,398.26 734.67,394.51 739.2,391.41" style="fill:none;fill-rule:nonzero;stroke:rgb(25,25,25);stroke-width:4px;"/>
        </g>
        <g transform="matrix(-1,0,0,1,1240.95,-35.5662)">
            <path d="M748.49,357.8L758.44,348.95" style="fill:none;fill-rule:nonzero;stroke:rgb(25,25,25);stroke-width:4px;"/>
        </g>
        <g transform="matrix(-1,0,0,1,1240.95,-35.5662)">
            <path d="M692.88,367.64C696.42,367.2 700.29,365.54 702.28,360.78" style="fill:none;fill-rule:nonzero;stroke:rgb(25,25,25);stroke-width:4px;"/>
        </g>
        <g transform="matrix(-1,0,0,1,1240.95,-35.5662)">
            <path d="M693.54,340.99C691.65,340.99 690.11,339.46 690.11,337.57C690.11,335.67 691.65,334.14 693.54,334.14C695.43,334.14 696.97,335.67 696.97,337.57C696.97,339.46 695.43,340.99 693.54,340.99Z" style="fill-rule:nonzero;"/>
        </g>
        <g transform="matrix(-1,0,0,1,1240.95,-35.5662)">
            <path d="M789.95,386.43C793.05,386.43 795.48,386.21 796.92,386.1C797.8,385.99 798.36,385.33 798.25,384.44C796.14,359.01 792.61,320.32 791.5,310.03C788.18,279.74 771.82,264.37 742.96,264.37C738.65,264.37 733.9,264.7 729.03,265.48C704.49,269.13 686.24,281.62 679.17,299.86C677.51,304.06 677.18,309.37 676.96,313.79C676.96,314.57 677.51,315.23 678.28,315.34C679.06,315.45 680.05,315.56 681.27,315.56C685.91,315.56 694.98,314.02 706.48,304.06C707.69,303.07 709.35,304.18 709.02,305.61C707.14,312.47 707.25,317.44 709.35,320.43C710.79,322.53 713.33,323.63 716.76,323.63C720.85,323.63 725.49,322.09 728.26,320.98C729.36,320.54 730.47,321.42 730.36,322.53C730.03,326.62 729.92,334.69 733.01,340.44C733.46,341.32 734.67,341.43 735.33,340.88C739.43,337.34 751.92,327.17 762.42,327.17C766.62,327.17 770.16,328.83 772.71,332.15C787.08,350.39 766.62,370.96 760.87,376.26C760.1,376.93 760.21,378.14 761.1,378.69C770.27,385.11 781.77,386.43 789.95,386.43Z" style="fill:rgb(25,25,25);fill-rule:nonzero;"/>
        </g>
        <g transform="matrix(-1,0,0,1,1240.95,-35.5662)">
            <path d="M727.48,624.26C719.63,629.23 712.56,634.87 712.34,637.52C712.12,640.18 716.87,643.27 723.84,642.61L735.33,633.99L727.48,624.26Z" style="fill:rgb(206,164,130);fill-rule:nonzero;"/>
        </g>
        <g transform="matrix(-1,0,0,1,1240.95,-35.5662)">
            <path d="M781.77,718.35L716.76,605.68L642.13,648.69L707.25,761.36L781.77,718.35Z" style="fill:rgb(160,207,255);fill-rule:nonzero;"/>
        </g>
        <g transform="matrix(-1,0,0,1,1240.95,-35.5662)">
            <path d="M843.29,542.02L856.84,561.24C856.51,561.35 825.22,576.82 801.23,588.21L831.53,656.87C863.15,649.35 919.42,632.22 940.87,602.14C976.03,552.94 905.39,462.38 874.53,432.98" style="fill:rgb(48,191,255);fill-rule:nonzero;"/>
        </g>
        <g transform="matrix(-1,0,0,1,1240.95,-35.5662)">
            <path d="M726.38,711.6C739.54,711.6 806.43,662.29 807.09,661.85C807.2,661.85 817.26,660.3 831.75,656.87L801.67,587.99C791.5,592.75 782.77,596.84 778.34,598.83C737.88,616.3 727.6,624.15 727.48,624.26L733.01,634.21C732.68,634.43 694.21,660.85 687.68,670.69C685.36,674.12 684.59,677.33 685.25,680.09C686.02,683.52 688.79,685.07 688.79,685.07C686.24,689.82 685.69,693.47 687.13,696.01C689.12,699.44 694.21,699.44 694.32,699.44C694.76,703.31 697.3,705.19 701.83,705.19C713.44,705.19 734.78,691.92 735.22,691.7C734.78,692.03 720.41,705.08 722.29,709.83C722.73,711.05 724.06,711.6 726.38,711.6Z" style="fill:rgb(206,164,130);fill-rule:nonzero;"/>
        </g>
        <g transform="matrix(-1,0,0,1,1240.95,-35.5662)">
            <path d="M701.5,557.7L697.63,513.69" style="fill:none;fill-rule:nonzero;stroke:rgb(24,29,31);stroke-width:4px;"/>
        </g>
        <g transform="matrix(-1,0,0,1,1240.95,-35.5662)">
            <path d="M844.13,543.21L829.09,521.87" style="fill:none;fill-rule:nonzero;stroke:rgb(24,29,31);stroke-width:4px;"/>
        </g>
        <g transform="matrix(-1,0,0,1,1240.95,-35.5662)">
            <path d="M856.84,560.13L879.62,563.67" style="fill:none;fill-rule:nonzero;stroke:rgb(24,29,31);stroke-width:4px;"/>
        </g>
        <g transform="matrix(-1,0,0,1,1240.95,-35.5662)">
            <path d="M688.79,685.07L737.44,650.79" style="fill:none;fill-rule:nonzero;stroke:rgb(25,25,25);stroke-width:4px;"/>
        </g>
        <g transform="matrix(-1,0,0,1,1240.95,-35.5662)">
            <path d="M694.32,699.44L746.28,665.17" style="fill:none;fill-rule:nonzero;stroke:rgb(25,25,25);stroke-width:4px;"/>
        </g>
        <g transform="matrix(-1,0,0,1,1240.95,-35.5662)">
            <path d="M735.22,691.7L754.02,679.54" style="fill:none;fill-rule:nonzero;stroke:rgb(25,25,25);stroke-width:4px;"/>
        </g>
    </g>
</svg>
