<?xml version="1.0" encoding="UTF-8" standalone="no"?>
<!DOCTYPE svg PUBLIC "-//W3C//DTD SVG 1.1//EN" "http://www.w3.org/Graphics/SVG/1.1/DTD/svg11.dtd">
<svg width="100%" height="100%" viewBox="0 0 1546 1296" version="1.1" xmlns="http://www.w3.org/2000/svg" xmlns:xlink="http://www.w3.org/1999/xlink" xml:space="preserve" xmlns:serif="http://www.serif.com/" style="fill-rule:evenodd;clip-rule:evenodd;">
    <g>
        <path d="M1379,1005.4L1328.9,999.61L1336.2,956.31C1336.4,955.31 1335.8,954.41 1334.9,954.11C1334,953.81 1333,954.21 1332.5,955.01L1312.5,990.61L1279.2,954.51C1278.5,953.81 1277.4,953.61 1276.6,954.21C1275.8,954.81 1275.5,955.81 1275.9,956.71L1296.8,1000.5L1261.3,1008.5C1260.4,1008.7 1259.7,1009.5 1259.7,1010.5C1259.7,1011.5 1260.4,1012.3 1261.3,1012.4L1297.4,1018.9L1282.9,1073.7C1282.6,1074.7 1283.1,1075.7 1284.1,1076.1C1284.3,1076.2 1284.6,1076.3 1284.9,1076.3C1285.6,1076.3 1286.3,1075.9 1286.6,1075.3L1313.9,1028.2L1338.4,1054.8C1339,1055.5 1340.1,1055.7 1340.9,1055.2C1341.7,1054.7 1342.1,1053.7 1341.7,1052.8L1329.4,1018.4L1379,1009.3C1380,1009.1 1380.7,1008.3 1380.6,1007.3C1380.5,1006.3 1380,1005.5 1379,1005.4Z" style="fill:rgb(255,50,77);fill-rule:nonzero;stroke:black;stroke-width:4px;"/>
    </g>
    <g>
        <g transform="matrix(1,0,0,1,39.7561,184.728)">
            <path d="M1183,322.4L1099.1,322.4C1099.1,322.4 1089.4,372 1118.6,398.3L1202.5,398.3C1173.3,372 1183,322.4 1183,322.4Z" style="fill:rgb(255,160,171);fill-rule:nonzero;stroke:black;stroke-width:4px;"/>
        </g>
        <g transform="matrix(1,0,0,1,39.7561,184.728)">
            <path d="M1065.4,279.5L981.5,279.5C981.5,279.5 971.8,329.1 1001,355.4L1084.9,355.4C1055.6,329.1 1065.4,279.5 1065.4,279.5Z" style="fill:rgb(255,48,115);fill-rule:nonzero;stroke:black;stroke-width:4px;"/>
        </g>
    </g>
    <g>
        <path d="M858.5,161.5L945,161.5C964.9,161.5 981,177.6 981,197.5L981,199.1C981,219 964.9,235.1 945,235.1L858.5,235.1C838.6,235.1 822.5,219 822.5,199.1L822.5,197.5C822.5,177.6 838.6,161.5 858.5,161.5Z" style="fill:rgb(255,50,77);fill-rule:nonzero;stroke:black;stroke-width:4px;"/>
        <path d="M874.3,203.1C880.21,203.1 885,198.31 885,192.4C885,186.49 880.21,181.7 874.3,181.7C868.39,181.7 863.6,186.49 863.6,192.4C863.6,198.31 868.39,203.1 874.3,203.1Z" style="fill:none;fill-rule:nonzero;stroke:black;stroke-width:4px;stroke-linecap:round;stroke-linejoin:round;"/>
        <path d="M882.9,198.9L870,215" style="fill:none;fill-rule:nonzero;stroke:black;stroke-width:4px;stroke-linecap:round;stroke-linejoin:round;"/>
        <path d="M907.6,203.1C913.51,203.1 918.3,198.31 918.3,192.4C918.3,186.49 913.51,181.7 907.6,181.7C901.69,181.7 896.9,186.49 896.9,192.4C896.9,198.31 901.69,203.1 907.6,203.1Z" style="fill:none;fill-rule:nonzero;stroke:black;stroke-width:4px;stroke-linecap:round;stroke-linejoin:round;"/>
        <path d="M916.2,198.9L903.3,215" style="fill:none;fill-rule:nonzero;stroke:black;stroke-width:4px;stroke-linecap:round;stroke-linejoin:round;"/>
        <path d="M936.6,190.8L936.6,205.9" style="fill:none;fill-rule:nonzero;stroke:black;stroke-width:4px;stroke-linecap:round;stroke-linejoin:round;"/>
        <path d="M944.1,198.4L929.1,198.4" style="fill:none;fill-rule:nonzero;stroke:black;stroke-width:4px;stroke-linecap:round;stroke-linejoin:round;"/>
    </g>
    <g transform="matrix(1,0,0,1,39.7561,184.728)">
        <path d="M1063.8,527L925.8,527C918.2,527 912,520.8 912,513.2L912,416.1C912,408.5 918.2,402.3 925.8,402.3L963.1,402.3C968,402.3 972.5,404.9 975,409.1L979.3,416.4C981.8,420.6 986.3,423.2 991.2,423.2L1063.9,423.2C1071.5,423.2 1077.7,429.4 1077.7,437L1077.7,513.2C1077.7,520.8 1071.5,527 1063.8,527Z" style="fill:rgb(255,190,97);fill-rule:nonzero;stroke:black;stroke-width:4px;"/>
    </g>
    <g>
        <path d="M472.13,744.04L740.39,744.04C756.49,744.04 769.55,757.1 769.55,773.21L769.55,990.62C769.55,1006.72 756.49,1019.78 740.39,1019.78L472.13,1019.78C456.02,1019.78 442.96,1006.72 442.96,990.62L442.96,773.21C442.96,757.1 456.02,744.04 472.13,744.04Z" style="fill:rgb(255,190,97);fill-rule:nonzero;stroke:black;stroke-width:4px;"/>
        <rect x="504.24" y="837.11" width="45.27" height="124.87" style="fill:white;fill-rule:nonzero;stroke:black;stroke-width:4px;"/>
        <rect x="583.73" y="885.86" width="45.27" height="76.01" style="fill:rgb(184,40,110);fill-rule:nonzero;stroke:black;stroke-width:4px;"/>
        <rect x="663.21" y="814.58" width="45.27" height="147.4" style="fill:white;fill-rule:nonzero;stroke:black;stroke-width:4px;"/>
        <path d="M504.24,725.09L504.24,757.2" style="fill:none;fill-rule:nonzero;stroke:black;stroke-width:4px;stroke-linecap:round;stroke-linejoin:round;"/>
        <path d="M708.48,725.51L708.48,757.73" style="fill:none;fill-rule:nonzero;stroke:black;stroke-width:4px;stroke-linecap:round;stroke-linejoin:round;"/>
    </g>
    <g>
        <path d="M328.49,599.45C319.61,599.44 311.09,595.91 304.81,589.63C298.53,583.35 295,574.83 294.99,565.96L294.99,248.49C295,239.62 298.53,231.1 304.81,224.82C311.09,218.54 319.61,215.01 328.49,215L740.36,215C749.24,215.01 757.75,218.54 764.03,224.82C770.31,231.1 773.84,239.62 773.86,248.49L773.86,565.96C773.84,574.83 770.31,583.35 764.03,589.63C757.75,595.91 749.24,599.44 740.36,599.45L328.49,599.45Z" style="fill:rgb(206,206,206);fill-rule:nonzero;stroke:black;stroke-width:4px;"/>
        <path d="M295.01,286.96L775.33,286.96" style="fill:none;fill-rule:nonzero;stroke:black;stroke-width:4px;"/>
        <path d="M330.23,262.98C337.27,262.98 342.97,257.28 342.97,250.24C342.97,243.2 337.27,237.5 330.23,237.5C323.2,237.5 317.49,243.2 317.49,250.24C317.49,257.28 323.2,262.98 330.23,262.98Z" style="fill:rgb(225,225,225);fill-rule:nonzero;stroke:black;stroke-width:4px;"/>
        <path d="M368.84,262.98C375.87,262.98 381.58,257.28 381.58,250.24C381.58,243.2 375.87,237.5 368.84,237.5C361.8,237.5 356.1,243.2 356.1,250.24C356.1,257.28 361.8,262.98 368.84,262.98Z" style="fill:rgb(225,225,225);fill-rule:nonzero;stroke:black;stroke-width:4px;"/>
        <path d="M407.43,262.98C414.47,262.98 420.17,257.28 420.17,250.24C420.17,243.2 414.47,237.5 407.43,237.5C400.4,237.5 394.7,243.2 394.7,250.24C394.7,257.28 400.4,262.98 407.43,262.98Z" style="fill:rgb(225,225,225);fill-rule:nonzero;stroke:black;stroke-width:4px;"/>
    </g>
    <g>
        <path d="M588.8,321.02L588.8,455.24" style="fill:none;fill-rule:nonzero;stroke:black;stroke-width:4px;stroke-linecap:round;stroke-linejoin:round;"/>
        <path d="M577.12,412.49L577.12,363.77C577.12,357.61 582.09,352.65 588.25,352.65C594.41,352.65 599.37,357.61 599.37,363.77L599.37,412.49C599.37,418.65 594.41,423.61 588.25,423.61C582.18,423.61 577.12,418.65 577.12,412.49Z" style="fill:rgb(255,190,97);fill-rule:nonzero;stroke:black;stroke-width:4px;"/>
        <path d="M501.56,383.17L501.56,514.9" style="fill:none;fill-rule:nonzero;stroke:black;stroke-width:4px;stroke-linecap:round;stroke-linejoin:round;"/>
        <path d="M490.44,473.44L490.44,424.72C490.44,418.56 495.4,413.59 501.56,413.59C507.72,413.59 512.68,418.56 512.68,424.72L512.68,473.44C512.68,479.6 507.72,484.56 501.56,484.56C495.4,484.47 490.44,479.51 490.44,473.44Z" style="fill:rgb(255,160,171);fill-rule:nonzero;stroke:black;stroke-width:4px;"/>
        <path d="M414.78,366.99L414.78,498.63" style="fill:none;fill-rule:nonzero;stroke:black;stroke-width:4px;stroke-linecap:round;stroke-linejoin:round;"/>
        <path d="M403.66,457.17L403.66,408.45C403.66,402.29 408.62,397.32 414.78,397.32C420.94,397.32 425.9,402.29 425.9,408.45L425.9,457.17C425.9,463.33 420.94,468.29 414.78,468.29C408.62,468.29 403.66,463.33 403.66,457.17Z" style="fill:rgb(184,40,110);fill-rule:nonzero;stroke:black;stroke-width:4px;"/>
        <path d="M458.17,337.3L458.17,567.2" style="fill:none;fill-rule:nonzero;stroke:black;stroke-width:4px;stroke-linecap:round;stroke-linejoin:round;"/>
        <path d="M447.05,525.29L447.05,379.12C447.05,372.96 452.01,368 458.17,368C464.33,368 469.29,372.96 469.29,379.12L469.29,525.29C469.29,531.45 464.33,536.41 458.17,536.41C452.01,536.41 447.05,531.45 447.05,525.29Z" style="fill:rgb(255,190,97);fill-rule:nonzero;stroke:black;stroke-width:4px;"/>
        <path d="M675.03,424.63L675.03,537.51" style="fill:none;fill-rule:nonzero;stroke:black;stroke-width:4px;stroke-linecap:round;stroke-linejoin:round;"/>
        <path d="M663.9,494.31L663.9,467.83C663.9,461.67 668.87,456.71 675.03,456.71C681.18,456.71 686.15,461.67 686.15,467.83L686.15,494.31C686.15,500.47 681.18,505.43 675.03,505.43C668.87,505.43 663.9,500.47 663.9,494.31Z" style="fill:rgb(255,50,77);fill-rule:nonzero;stroke:black;stroke-width:4px;"/>
        <path d="M631.54,352.46L631.54,514.9" style="fill:none;fill-rule:nonzero;stroke:black;stroke-width:4px;stroke-linecap:round;stroke-linejoin:round;"/>
        <path d="M620.51,472.52L620.51,394.75C620.51,388.59 625.48,383.63 631.64,383.63C637.8,383.63 642.76,388.59 642.76,394.75L642.76,472.52C642.76,478.68 637.8,483.64 631.64,483.64C625.57,483.64 620.51,478.68 620.51,472.52Z" style="fill:rgb(255,160,171);fill-rule:nonzero;stroke:black;stroke-width:4px;"/>
        <path d="M544.95,354.76L544.95,546.25" style="fill:none;fill-rule:nonzero;stroke:black;stroke-width:4px;stroke-linecap:round;stroke-linejoin:round;"/>
        <path d="M533.73,499.27L533.73,401.83C533.73,395.67 538.7,390.71 544.86,390.71C551.02,390.71 555.98,395.67 555.98,401.83L555.98,499.27C555.98,505.43 551.02,510.39 544.86,510.39C538.79,510.39 533.73,505.43 533.73,499.27Z" style="fill:rgb(255,190,97);fill-rule:nonzero;stroke:black;stroke-width:4px;"/>
    </g>
    <g>
        <path d="M324.4,381.4L259,367L278.8,322.7C279.2,321.8 278.9,320.8 278.1,320.2C277.3,319.7 276.2,319.8 275.5,320.4L240.7,355.6L207.1,314.7C206.5,313.9 205.4,313.7 204.6,314.2C203.8,314.7 203.4,315.7 203.7,316.6L221.4,365.2L170.4,365.2C169.4,365.2 168.6,365.9 168.4,366.9C168.2,367.9 168.8,368.8 169.7,369.1L221.1,386.8L201.3,434.4C200.9,435.3 201.3,436.3 202.1,436.9C202.9,437.4 204,437.3 204.7,436.6L239.4,398.4L282.6,448.7C283,449.2 283.6,449.4 284.1,449.4C284.5,449.4 284.9,449.3 285.2,449.1C286,448.6 286.3,447.5 285.9,446.6L258.7,388.6L324.1,385.3C325.1,385.3 325.9,384.5 326,383.5C326.1,382.6 325.4,381.7 324.4,381.4Z" style="fill:rgb(255,48,115);fill-rule:nonzero;stroke:black;stroke-width:4px;"/>
    </g>
    <g>
        <g transform="matrix(1,0,0,1,-48.3743,136.486)">
            <path d="M1006.96,654.9L1202.07,654.9C1217.83,654.9 1230.58,667.65 1230.58,683.41L1230.58,879.65C1230.58,895.41 1217.83,908.16 1202.07,908.16L1006.96,908.16C991.21,908.16 978.45,895.41 978.45,879.65L978.45,683.41C978.45,667.65 991.21,654.9 1006.96,654.9Z" style="fill:rgb(255,160,171);fill-rule:nonzero;stroke:black;stroke-width:4px;"/>
        </g>
        <g transform="matrix(1,0,0,1,-48.3743,136.486)">
            <path d="M1012.43,677.15L1190.65,677.15C1200.45,677.15 1208.38,685.08 1208.38,694.88L1208.38,720.77C1208.38,730.57 1200.45,738.5 1190.65,738.5L1012.43,738.5C1002.63,738.5 994.7,730.57 994.7,720.77L994.7,694.88C994.7,685.08 1002.63,677.15 1012.43,677.15Z" style="fill:rgb(184,40,110);fill-rule:nonzero;stroke:black;stroke-width:4px;"/>
        </g>
        <g transform="matrix(1,0,0,1,-48.3743,136.486)">
            <path d="M1147.03,867.98L1147.03,768.73C1147.03,758.93 1154.96,751 1164.75,751L1190.65,751C1200.45,751 1208.38,758.93 1208.38,768.73L1208.38,867.98C1208.38,877.78 1200.45,885.71 1190.65,885.71L1164.75,885.71C1154.96,885.71 1147.03,877.78 1147.03,867.98Z" style="fill:white;fill-rule:nonzero;stroke:black;stroke-width:4px;"/>
        </g>
        <g transform="matrix(1,0,0,1,-48.3743,136.486)">
            <path d="M1073.97,867.98L1073.97,842.38C1073.97,832.58 1081.89,824.66 1091.69,824.66L1117.29,824.66C1127.09,824.66 1135.02,832.58 1135.02,842.38L1135.02,867.98C1135.02,877.78 1127.09,885.71 1117.29,885.71L1091.69,885.71C1081.89,885.71 1073.97,877.78 1073.97,867.98Z" style="fill:rgb(184,40,110);fill-rule:nonzero;stroke:black;stroke-width:4px;"/>
        </g>
        <g transform="matrix(1,0,0,1,-48.3743,136.486)">
            <path d="M1073.97,794.33L1073.97,768.73C1073.97,758.93 1081.89,751 1091.69,751L1117.29,751C1127.09,751 1135.02,758.93 1135.02,768.73L1135.02,794.33C1135.02,804.13 1127.09,812.05 1117.29,812.05L1091.69,812.05C1081.89,812.05 1073.97,804.13 1073.97,794.33Z" style="fill:rgb(184,40,110);fill-rule:nonzero;stroke:black;stroke-width:4px;"/>
        </g>
        <g transform="matrix(1,0,0,1,-48.3743,136.486)">
            <path d="M1000.61,867.98L1000.61,842.38C1000.61,832.58 1008.54,824.66 1018.33,824.66L1043.94,824.66C1053.73,824.66 1061.66,832.58 1061.66,842.38L1061.66,867.98C1061.66,877.78 1053.73,885.71 1043.94,885.71L1018.33,885.71C1008.54,885.71 1000.61,877.78 1000.61,867.98Z" style="fill:rgb(184,40,110);fill-rule:nonzero;stroke:black;stroke-width:4px;"/>
        </g>
        <g transform="matrix(1,0,0,1,-48.3743,136.486)">
            <path d="M1000.61,794.33L1000.61,768.73C1000.61,758.93 1008.54,751 1018.33,751L1043.94,751C1053.73,751 1061.66,758.93 1061.66,768.73L1061.66,794.33C1061.66,804.13 1053.73,812.05 1043.94,812.05L1018.33,812.05C1008.54,812.05 1000.61,804.13 1000.61,794.33Z" style="fill:rgb(184,40,110);fill-rule:nonzero;stroke:black;stroke-width:4px;"/>
        </g>
        <g transform="matrix(1,0,0,1,-48.3743,136.486)">
            <path d="M1158.65,724.76L1158.65,692.71L1142.4,711.42L1164.07,711.42" style="fill:none;fill-rule:nonzero;stroke:black;stroke-width:4px;stroke-linecap:round;stroke-linejoin:round;"/>
        </g>
        <g transform="matrix(1,0,0,1,-48.3743,136.486)">
            <path d="M1175.59,704.48C1181.05,702.8 1186.81,705.91 1188.48,711.32C1190.16,716.74 1187.06,722.55 1181.64,724.22C1177.56,725.45 1173.12,724.07 1170.51,720.73" style="fill:none;fill-rule:nonzero;stroke:black;stroke-width:4px;stroke-linecap:round;stroke-linejoin:round;"/>
        </g>
        <g transform="matrix(1,0,0,1,-48.3743,136.486)">
            <path d="M1170.96,692.71L1186.71,692.71L1175.39,704.53" style="fill:none;fill-rule:nonzero;stroke:black;stroke-width:4px;stroke-linecap:round;stroke-linejoin:round;"/>
        </g>
        <g transform="matrix(1,0,0,1,-48.3743,136.486)">
            <path d="M1185.14,822.64L1171.5,822.64" style="fill:none;fill-rule:nonzero;stroke:black;stroke-width:4px;stroke-linecap:round;stroke-linejoin:round;"/>
        </g>
        <g transform="matrix(1,0,0,1,-48.3743,136.486)">
            <path d="M1185.14,814.42L1171.5,814.42" style="fill:none;fill-rule:nonzero;stroke:black;stroke-width:4px;stroke-linecap:round;stroke-linejoin:round;"/>
        </g>
    </g>
    <g>
        <g transform="matrix(1,0,0,1,-50.4485,-266.598)">
            <path d="M1241.6,629.5L1255.7,629.5" style="fill:none;fill-rule:nonzero;stroke:black;stroke-width:4px;stroke-linecap:round;stroke-linejoin:round;"/>
        </g>
        <g transform="matrix(1,0,0,1,-50.4485,-266.598)">
            <path d="M1212.7,676.4C1275.99,676.4 1327.3,625.09 1327.3,561.8C1327.3,498.51 1275.99,447.2 1212.7,447.2C1149.41,447.2 1098.1,498.51 1098.1,561.8C1098.1,625.09 1149.41,676.4 1212.7,676.4Z" style="fill:white;fill-rule:nonzero;stroke:black;stroke-width:4px;"/>
        </g>
        <g transform="matrix(1,0,0,1,-50.4485,-266.598)">
            <path d="M1256.8,630.6L1256.8,619.7L1192.3,619.6L1192.3,631.6L1170.8,631.6C1154.5,631.6 1141.4,641.2 1135.5,646.4C1182.2,689.1 1254.6,685.8 1297.3,639.1C1297.9,638.4 1298.6,637.7 1299.2,637C1293,632.9 1285.7,630.7 1278.2,630.5L1256.8,630.6Z" style="fill:rgb(255,190,97);fill-rule:nonzero;stroke:black;stroke-width:4px;"/>
        </g>
        <g transform="matrix(1,0,0,1,-50.4485,-266.598)">
            <path d="M1159.1,567.5C1161.4,555.9 1161.3,541.6 1163.3,528.7C1164.7,519.9 1167,511.8 1171.8,505.8C1183.6,491.1 1215.3,485.4 1240.7,504C1266.1,522.6 1264.8,548.8 1263.8,560.6L1256.7,600.3L1256.8,620L1192.3,620L1192.2,609.3C1192.2,609.3 1178.1,612.3 1169.8,606.6C1158.6,598.9 1155.2,587 1159.1,567.5Z" style="fill:rgb(172,112,78);fill-rule:nonzero;stroke:black;stroke-width:4px;"/>
        </g>
        <g transform="matrix(1,0,0,1,-50.4485,-266.598)">
            <path d="M1171.8,505.8C1183.6,491.1 1217.2,481.9 1242.6,500.5C1268,519.1 1264.8,548.8 1263.8,560.6L1256.7,600.3C1256.7,600.3 1237.6,594.3 1229.5,579.1C1229.5,579.1 1257.2,566.7 1244.6,548.9C1232.5,531.8 1211.4,552.9 1211.4,552.9C1199.3,548.9 1187.2,531.7 1187.2,531.7C1169.1,532.7 1163.3,528.6 1163.3,528.6C1164.7,519.9 1167,511.8 1171.8,505.8Z" style="fill:rgb(34,31,31);fill-rule:nonzero;stroke:black;stroke-width:4px;"/>
        </g>
        <g transform="matrix(1,0,0,1,-50.4485,-266.598)">
            <path d="M1190.2,561.4C1191.91,561.4 1193.3,560.01 1193.3,558.3C1193.3,556.59 1191.91,555.2 1190.2,555.2C1188.49,555.2 1187.1,556.59 1187.1,558.3C1187.1,560.01 1188.49,561.4 1190.2,561.4Z" style="fill-rule:nonzero;stroke:black;stroke-width:4px;"/>
        </g>
        <g transform="matrix(1,0,0,1,-50.4485,-266.598)">
            <path d="M1168.1,559.3C1169.81,559.3 1171.2,557.91 1171.2,556.2C1171.2,554.49 1169.81,553.1 1168.1,553.1C1166.38,553.1 1165,554.49 1165,556.2C1165,557.91 1166.38,559.3 1168.1,559.3Z" style="fill-rule:nonzero;stroke:black;stroke-width:4px;"/>
        </g>
        <g transform="matrix(1,0,0,1,-50.4485,-266.598)">
            <path d="M1174.8,566.5C1174.3,568.2 1174,569.7 1174.3,570.3C1174.8,571.2 1175.6,572 1176.5,572.5" style="fill:none;fill-rule:nonzero;stroke:black;stroke-width:4px;stroke-linecap:round;stroke-linejoin:round;"/>
        </g>
        <g transform="matrix(1,0,0,1,-50.4485,-266.598)">
            <path d="M1185.1,581.2C1183.2,583 1180.5,583.8 1177.9,583.2" style="fill:none;fill-rule:nonzero;stroke:black;stroke-width:4px;stroke-linecap:round;stroke-linejoin:round;"/>
        </g>
        <g transform="matrix(1,0,0,1,-50.4485,-266.598)">
            <path d="M1204.5,606.8C1200.9,608.4 1196,608.1 1192.2,609.3" style="fill:none;fill-rule:nonzero;stroke:black;stroke-width:4px;stroke-linecap:round;stroke-linejoin:round;"/>
        </g>
        <g transform="matrix(1,0,0,1,-50.4485,-266.598)">
            <path d="M1229.5,560L1222.5,565" style="fill:none;fill-rule:nonzero;stroke:black;stroke-width:4px;stroke-linecap:round;stroke-linejoin:round;"/>
        </g>
    </g>
    <g>
        <g transform="matrix(1,0,0,1,-50.4485,-266.598)">
            <path d="M1326.57,417.39L1273.82,417.39C1254.43,417.39 1238.66,433.16 1238.66,452.56C1238.66,469.82 1251.2,484.49 1268.23,487.25L1268.23,505.3L1294.01,487.72L1326.57,487.72C1345.96,487.72 1361.73,471.95 1361.73,452.56C1361.73,433.08 1345.96,417.39 1326.57,417.39Z" style="fill:rgb(184,40,110);fill-rule:nonzero;stroke:black;stroke-width:4px;"/>
        </g>
        <g transform="matrix(1,0,0,1,-50.4485,-266.598)">
            <path d="M1280.45,456.81C1283.1,456.81 1285.26,454.66 1285.26,452C1285.26,449.35 1283.1,447.19 1280.45,447.19C1277.79,447.19 1275.64,449.35 1275.64,452C1275.64,454.66 1277.79,456.81 1280.45,456.81Z" style="fill:white;fill-rule:nonzero;stroke:black;stroke-width:4px;"/>
        </g>
        <g transform="matrix(1,0,0,1,-50.4485,-266.598)">
            <path d="M1300.16,456.81C1302.81,456.81 1304.97,454.66 1304.97,452C1304.97,449.35 1302.81,447.19 1300.16,447.19C1297.5,447.19 1295.35,449.35 1295.35,452C1295.35,454.66 1297.5,456.81 1300.16,456.81Z" style="fill:white;fill-rule:nonzero;stroke:black;stroke-width:4px;"/>
        </g>
        <g transform="matrix(1,0,0,1,-50.4485,-266.598)">
            <path d="M1319.95,456.81C1322.6,456.81 1324.76,454.66 1324.76,452C1324.76,449.35 1322.6,447.19 1319.95,447.19C1317.29,447.19 1315.14,449.35 1315.14,452C1315.14,454.66 1317.29,456.81 1319.95,456.81Z" style="fill:white;fill-rule:nonzero;stroke:black;stroke-width:4px;"/>
        </g>
    </g>
    <g>
        <path d="M513.05,1011.7L517.02,1039.56L480.47,1039.56L480.47,1012.41L513.05,1011.7Z" style="fill:rgb(184,40,110);fill-rule:nonzero;stroke:black;stroke-width:4px;"/>
        <path d="M460.4,1013.49L513.19,1013.49C515.69,1013.49 518.31,1011.46 519.02,1008.95C519.73,1006.44 518.27,1004.44 515.8,1004.44L462.98,1004.44C460.47,1004.44 457.86,1006.47 457.15,1008.95C456.43,1011.46 457.89,1013.49 460.4,1013.49Z" style="fill:rgb(184,40,110);fill-rule:nonzero;stroke:black;stroke-width:4px;"/>
        <path d="M469.49,1037.77L459.93,1071.06L495.96,1071.06L505.52,1037.77L469.49,1037.77Z" style="fill:rgb(184,40,110);fill-rule:nonzero;stroke:black;stroke-width:4px;"/>
        <path d="M525.63,1050.11C526.98,1044.82 523.83,1039.43 518.51,1038.04C517.69,1037.83 516.88,1037.73 516.03,1037.73L505.49,1037.73L495.93,1071.02L519.66,1071.02L525.63,1050.11Z" style="fill:rgb(184,40,110);fill-rule:nonzero;stroke:black;stroke-width:4px;"/>
        <path d="M525.61,1050.18C522.59,1050.18 519.44,1052.62 518.59,1055.64C517.74,1058.66 519.47,1061.1 522.49,1061.1L525.61,1050.18Z" style="fill:rgb(255,160,171);fill-rule:nonzero;stroke:black;stroke-width:4px;"/>
        <path d="M400.56,986L376.19,1071.06L408.5,1071.06L432.91,986L400.56,986Z" style="fill:rgb(184,40,110);fill-rule:nonzero;stroke:black;stroke-width:4px;"/>
        <path d="M432.91,986L408.5,1071.06L440.84,1071.06L465.22,986L432.91,986Z" style="fill:rgb(184,40,110);fill-rule:nonzero;stroke:black;stroke-width:4px;"/>
        <path d="M465.22,986L440.84,1071.06L473.18,1071.06L497.56,986L465.22,986Z" style="fill:rgb(184,40,110);fill-rule:nonzero;stroke:black;stroke-width:4px;"/>
        <path d="M376.19,1071.06L473.18,1071.06L479.39,1049.33L382.39,1049.33L376.19,1071.06Z" style="fill:rgb(184,40,110);fill-rule:nonzero;stroke:black;stroke-width:4px;"/>
        <path d="M412.14,1079.42C418.23,1074.14 419.96,1066.14 415.98,1061.55C412.01,1056.97 403.85,1057.54 397.75,1062.82C391.65,1068.11 389.93,1076.11 393.9,1080.69C397.88,1085.28 406.04,1084.71 412.14,1079.42Z" style="fill-rule:nonzero;stroke:black;stroke-width:4px;"/>
        <path d="M406.85,1073.33C408.48,1071.92 408.94,1069.78 407.89,1068.57C406.83,1067.35 404.66,1067.51 403.03,1068.92C401.41,1070.33 400.94,1072.46 402,1073.67C403.05,1074.89 405.23,1074.74 406.85,1073.33Z" style="fill:rgb(184,40,110);fill-rule:nonzero;stroke:black;stroke-width:4px;"/>
        <path d="M505.44,1037.76L496.01,1071.05" style="fill:none;fill-rule:nonzero;stroke:black;stroke-width:4px;stroke-linecap:round;stroke-linejoin:round;"/>
        <path d="M501.86,1079.46C507.96,1074.17 509.68,1066.17 505.71,1061.59C501.73,1057.01 493.57,1057.57 487.47,1062.86C481.38,1068.15 479.65,1076.15 483.63,1080.73C487.6,1085.32 495.76,1084.75 501.86,1079.46Z" style="fill-rule:nonzero;stroke:black;stroke-width:4px;"/>
        <path d="M496.58,1073.36C498.2,1071.95 498.67,1069.82 497.61,1068.61C496.56,1067.39 494.38,1067.55 492.76,1068.96C491.13,1070.37 490.67,1072.5 491.72,1073.72C492.78,1074.93 494.95,1074.77 496.58,1073.36Z" style="fill:rgb(184,40,110);fill-rule:nonzero;stroke:black;stroke-width:4px;"/>
        <path d="M488.81,1048.95L494.95,1048.95" style="fill:none;fill-rule:nonzero;stroke:black;stroke-width:4px;stroke-linecap:round;stroke-linejoin:round;"/>
        <path d="M492.47,1004.07L473.25,1071.06" style="fill:none;fill-rule:nonzero;stroke:black;stroke-width:4px;stroke-linecap:round;stroke-linejoin:round;"/>
        <path d="M465.28,986.74L447.31,1049.36" style="fill:none;fill-rule:nonzero;stroke:black;stroke-width:4px;stroke-linecap:round;stroke-linejoin:round;"/>
        <path d="M432.33,986.74L414.36,1049.36" style="fill:none;fill-rule:nonzero;stroke:black;stroke-width:4px;stroke-linecap:round;stroke-linejoin:round;"/>
    </g>
    <g>
        <path d="M478.3,797C514.75,797 544.3,767.45 544.3,731C544.3,694.55 514.75,665 478.3,665C441.85,665 412.3,694.55 412.3,731C412.3,767.45 441.85,797 478.3,797Z" style="fill:rgb(255,50,77);fill-rule:nonzero;stroke:black;stroke-width:4px;"/>
        <path d="M478.3,775C502.6,775 522.3,755.3 522.3,731C522.3,706.7 502.6,687 478.3,687C454,687 434.3,706.7 434.3,731C434.3,755.3 454,775 478.3,775Z" style="fill:none;fill-rule:nonzero;stroke:black;stroke-width:4px;"/>
        <path d="M469.01,747.47L469.01,713.4L481.68,713.4C487.37,713.4 491.93,717.32 491.93,722.2C491.93,727.03 487.37,731 481.68,731L469.01,731" style="fill:none;fill-rule:nonzero;stroke:black;stroke-width:4px;stroke-linecap:round;stroke-linejoin:round;"/>
        <path d="M469.01,748.6L469.01,731L481.68,731C487.37,731 491.93,734.92 491.93,739.8C491.93,744.63 487.37,748.6 481.68,748.6L469.01,748.6" style="fill:none;fill-rule:nonzero;stroke:black;stroke-width:4px;stroke-linecap:round;stroke-linejoin:round;"/>
        <path d="M478.62,712.92L478.62,708.62" style="fill:none;fill-rule:nonzero;stroke:black;stroke-width:4px;stroke-linecap:round;stroke-linejoin:round;"/>
        <path d="M478.62,753.32L478.62,749.08" style="fill:none;fill-rule:nonzero;stroke:black;stroke-width:4px;stroke-linecap:round;stroke-linejoin:round;"/>
    </g>
    <g>
        <g transform="matrix(-1,0,0,1,1527.75,-27.9478)">
            <path d="M844.16,321.89C844.95,296.53 828.1,281.94 799.9,280.47C772.19,279.1 752.9,277.82 741.44,293.2C731.06,307.1 732.53,336.09 729.4,349.6C726.26,363.11 722.15,376.53 729.59,388.48C737.04,400.42 753.19,405.03 767.69,401.89L767.78,414.33L843.18,414.33C845.63,376.73 843.67,337.75 844.16,321.89Z" style="fill:rgb(223,182,155);fill-rule:nonzero;stroke:black;stroke-width:4px;"/>
        </g>
        <g transform="matrix(-1,0,0,1,1527.75,-27.9478)">
            <path d="M848.77,319.83C849.55,294.47 829.18,271.56 800.98,270.09C773.27,268.72 753,277.73 741.54,293.1C740.36,294.67 739.48,296.13 738.5,298C738.5,298 747.12,308.08 782.37,296.33C774.15,307.3 777.48,322.77 804.9,318.85C801.96,325.71 800,332.56 801.96,342.35C801.96,342.35 827.91,331.97 833.29,348.23C838.19,362.92 811.75,378.59 811.75,378.59C825.46,393.27 844.26,395.23 844.26,395.23C845.83,370.07 848.47,336.09 848.77,319.83Z" style="fill:rgb(255,160,220);fill-rule:nonzero;stroke:black;stroke-width:4px;"/>
        </g>
        <g transform="matrix(-1,0,0,1,1527.75,-27.9478)">
            <path d="M767.88,401.7C775.52,399.44 780.61,397.58 787.66,394.55" style="fill:none;fill-rule:nonzero;stroke:black;stroke-width:4px;stroke-linecap:round;stroke-linejoin:round;"/>
        </g>
        <g transform="matrix(-1,0,0,1,1527.75,-27.9478)">
            <path d="M804.81,361.06L814.6,357.14" style="fill:none;fill-rule:nonzero;stroke:black;stroke-width:4px;stroke-linecap:round;stroke-linejoin:round;"/>
        </g>
        <g transform="matrix(-1,0,0,1,1527.75,-27.9478)">
            <path d="M754.38,345.49L753.59,348.23C753.1,349.8 753.59,351.46 754.77,352.54L755.06,352.83" style="fill:none;fill-rule:nonzero;stroke:black;stroke-width:4px;stroke-linecap:round;stroke-linejoin:round;"/>
        </g>
        <g transform="matrix(-1,0,0,1,1527.75,-27.9478)">
            <path d="M751.72,364.88C753.49,366.15 759.26,366.35 762.59,362.23" style="fill:none;fill-rule:nonzero;stroke:black;stroke-width:4px;stroke-linecap:round;stroke-linejoin:round;"/>
        </g>
        <g transform="matrix(-1,0,0,1,1527.75,-27.9478)">
            <path d="M771.11,343.43C772.9,343.43 774.34,341.98 774.34,340.2C774.34,338.42 772.9,336.97 771.11,336.97C769.33,336.97 767.88,338.42 767.88,340.2C767.88,341.98 769.33,343.43 771.11,343.43Z" style="fill:rgb(23,19,20);fill-rule:nonzero;stroke:black;stroke-width:4px;"/>
        </g>
        <g transform="matrix(-1,0,0,1,1527.75,-27.9478)">
            <path d="M743.69,339.32C745.49,339.32 746.93,337.87 746.93,336.09C746.93,334.31 745.49,332.86 743.69,332.86C741.91,332.86 740.46,334.31 740.46,336.09C740.46,337.87 741.91,339.32 743.69,339.32Z" style="fill:rgb(23,19,20);fill-rule:nonzero;stroke:black;stroke-width:4px;"/>
        </g>
        <g transform="matrix(-1,0,0,1,1527.75,-27.9478)">
            <path d="M607.1,438.51C607.1,438.42 607,438.32 607,438.32C607.1,424.41 604.07,410.8 598.19,398.27C591.63,384.46 592.31,363.02 587.42,363.02C580.47,363.02 578.7,375.35 575.77,393.47C575.67,393.86 575.18,394.06 574.88,393.76C561.96,382.89 537.38,338.24 522.01,350.09C521.91,350.19 521.71,350.19 521.52,350.19C513.98,347.45 509.37,351.07 509.96,358.71C509.96,358.9 509.86,359.2 509.67,359.3C498.5,363.8 512.7,384.46 519.95,396.31C520.24,396.9 519.56,397.39 519.07,396.9C507.91,384.56 498.41,380.54 495.37,384.56C492.43,388.48 507.12,407.08 522.69,426.57L522.79,426.67C536.2,461.23 547.96,466.13 549.91,466.62C550.11,466.72 550.21,466.81 550.31,467.01L558.24,499.72C558.34,500.01 558.63,500.21 558.92,500.11L624.04,472.59C624.34,472.49 624.43,472.1 624.34,471.91C619.64,462.6 612.49,448.7 607.1,438.51Z" style="fill:rgb(223,182,155);fill-rule:nonzero;stroke:black;stroke-width:4px;"/>
        </g>
        <g transform="matrix(-1,0,0,1,1527.75,-27.9478)">
            <path d="M575.67,394.35L573.71,404.14C573.71,404.14 565.48,420.59 569.89,439" style="fill:none;fill-rule:nonzero;stroke:black;stroke-width:4px;stroke-linecap:round;stroke-linejoin:round;"/>
        </g>
        <g transform="matrix(-1,0,0,1,1527.75,-27.9478)">
            <path d="M521.81,350.29C537.48,366.93 552.17,388.48 552.17,388.48" style="fill:none;fill-rule:nonzero;stroke:black;stroke-width:4px;stroke-linecap:round;stroke-linejoin:round;"/>
        </g>
        <g transform="matrix(-1,0,0,1,1527.75,-27.9478)">
            <path d="M510.06,359.1C516.91,365.95 539.44,397.29 539.44,397.29" style="fill:none;fill-rule:nonzero;stroke:black;stroke-width:4px;stroke-linecap:round;stroke-linejoin:round;"/>
        </g>
        <g transform="matrix(-1,0,0,1,1527.75,-27.9478)">
            <path d="M519.85,396.9L524.75,403.75" style="fill:none;fill-rule:nonzero;stroke:black;stroke-width:4px;stroke-linecap:round;stroke-linejoin:round;"/>
        </g>
        <g transform="matrix(-1,0,0,1,1527.75,-27.9478)">
            <path d="M612.88,1161.09L755.85,1161.09C755.85,1161.09 758,1151.79 760.35,1140.13L619.15,1140.53C615.42,1145.32 612.88,1153.26 612.88,1161.09Z" style="fill:rgb(21,19,19);fill-rule:nonzero;stroke:black;stroke-width:4px;"/>
        </g>
        <g transform="matrix(-1,0,0,1,1527.75,-27.9478)">
            <path d="M773.46,1030.85L772.09,1027.33L673.97,1027.33L672.5,1030.85C674.27,1060.72 673.88,1083.14 665.65,1097.73C665.65,1097.73 676.23,1123.78 677.5,1142.48L759.85,1142.48C764.85,1118.49 772.48,1074.53 773.46,1030.85Z" style="fill:rgb(223,182,155);fill-rule:nonzero;stroke:black;stroke-width:4px;"/>
        </g>
        <g transform="matrix(-1,0,0,1,1527.75,-27.9478)">
            <path d="M665.66,1097.73C663.7,1101.36 661.06,1104.59 657.92,1107.23C637.65,1124.47 624.34,1132.2 617.77,1142.48L693.96,1142.48C692.69,1123.78 682.01,1106.94 665.66,1097.73Z" style="fill:rgb(255,48,115);fill-rule:nonzero;stroke:black;stroke-width:4px;"/>
        </g>
        <g transform="matrix(-1,0,0,1,1527.75,-27.9478)">
            <path d="M771.81,977.97L668.89,977.97C670.16,997.56 671.53,1015.28 672.51,1030.85L773.47,1030.85C773.67,1024.29 773.67,1017.73 773.47,1011.27C773.08,998.24 772.59,987.37 771.81,977.97Z" style="fill:rgb(255,160,171);fill-rule:nonzero;stroke:black;stroke-width:4px;"/>
        </g>
        <g transform="matrix(-1,0,0,1,1527.75,-27.9478)">
            <path d="M916.44,865.36C907.63,781.15 945.82,693.02 883.15,597.05L748.99,597.05C748.99,597.05 675.55,730.23 667.72,874.17C665.56,913.34 666.93,948.01 668.89,977.97L670.75,980.81L771.12,983.07L771.91,978.07C768.48,936.75 762.9,925.39 766.62,891.8C769.26,868.3 784.05,836.08 801.09,799.07C803.73,821.69 806.57,845.29 809.7,869.28C814.89,909.23 822.92,945.85 830.07,977.97L830.37,978.56L942.19,980.03L942.19,977.97C935.14,930.68 919.87,898.07 916.44,865.36Z" style="fill:rgb(184,40,110);fill-rule:nonzero;stroke:black;stroke-width:4px;"/>
        </g>
        <g transform="matrix(-1,0,0,1,1527.75,-27.9478)">
            <path d="M901.74,450.17C876.18,414.23 845.14,422.16 843.09,422.75L843.28,411.88L767.69,411.88L767.59,424.71C767.59,424.71 725.38,415.01 688.27,461.92C669.66,485.42 647.14,517.73 647.14,517.73C647.14,517.73 636.76,496.49 622.56,468.58L557.44,496.58C571.06,556.02 597.1,624.08 661.83,599.99C697.28,586.77 733.31,536.34 733.31,536.34L748.98,597.05L833.39,597.05L831.82,621.73C909.09,639.16 942.87,622.51 951.68,602.93C975.67,549.56 901.74,450.17 901.74,450.17Z" style="fill:rgb(255,48,115);fill-rule:nonzero;stroke:black;stroke-width:4px;"/>
        </g>
        <g transform="matrix(-1,0,0,1,1527.75,-27.9478)">
            <path d="M647.15,517.73L638.34,531.15" style="fill:none;fill-rule:nonzero;stroke:black;stroke-width:4px;stroke-linecap:round;stroke-linejoin:round;"/>
        </g>
        <g transform="matrix(-1,0,0,1,1527.75,-27.9478)">
            <path d="M733.31,536.34L729.98,522.63" style="fill:none;fill-rule:nonzero;stroke:black;stroke-width:4px;stroke-linecap:round;stroke-linejoin:round;"/>
        </g>
        <g transform="matrix(-1,0,0,1,1527.75,-27.9478)">
            <path d="M661.84,599.99C664.88,598.81 667.81,597.54 670.65,595.98C661.35,570.03 632.86,556.41 606.81,565.72C599.95,568.16 593.78,572.08 588.59,577.17C605.04,600.19 628.25,612.52 661.84,599.99Z" style="fill:rgb(255,160,171);fill-rule:nonzero;stroke:black;stroke-width:4px;"/>
        </g>
        <g transform="matrix(-1,0,0,1,1527.75,-27.9478)">
            <path d="M796.19,1139.55C792.27,1144.15 789.14,1153.26 789.14,1161.09L932.21,1161.09C932.21,1161.09 933.97,1152.77 936.02,1141.11L796.19,1139.55Z" style="fill:rgb(21,19,19);fill-rule:nonzero;stroke:black;stroke-width:4px;"/>
        </g>
        <g transform="matrix(-1,0,0,1,1527.75,-27.9478)">
            <path d="M946.01,1030.85L946.01,1029.38L841.04,1028.89L841.43,1030.95C846.82,1060.03 848.58,1082.65 841.82,1097.24L859.74,1142.58L935.73,1142.58C939.75,1118.69 945.92,1075.31 946.01,1030.85Z" style="fill:rgb(223,182,155);fill-rule:nonzero;stroke:black;stroke-width:4px;"/>
        </g>
        <g transform="matrix(-1,0,0,1,1527.75,-27.9478)">
            <path d="M942.18,977.97L830.06,977.97C834.37,997.36 838.39,1015.09 841.42,1030.85L946,1030.85C946,1026.64 945.91,1022.33 945.81,1018.12C945.42,1004.71 944.24,991.29 942.18,977.97Z" style="fill:rgb(255,160,171);fill-rule:nonzero;stroke:black;stroke-width:4px;"/>
        </g>
        <g transform="matrix(-1,0,0,1,1527.75,-27.9478)">
            <path d="M841.81,1097.15C840.05,1101.06 837.41,1104.49 834.18,1107.23C813.91,1124.47 800,1131.91 794.12,1142.48L871.19,1142.48C869.92,1123.29 858.75,1106.15 841.81,1097.15Z" style="fill:rgb(255,48,115);fill-rule:nonzero;stroke:black;stroke-width:4px;"/>
        </g>
        <g transform="matrix(-1,0,0,1,1527.75,-27.9478)">
            <path d="M790.12,695.76C793.06,726.21 796.78,762.05 801.28,800.44" style="fill:none;fill-rule:nonzero;stroke:black;stroke-width:4px;stroke-linecap:round;stroke-linejoin:round;"/>
        </g>
        <g transform="matrix(-1,0,0,1,1527.75,-27.9478)">
            <path d="M914.97,978.36C917.42,998.54 920.16,1030.46 920.16,1030.46" style="fill:none;fill-rule:nonzero;stroke:black;stroke-width:4px;stroke-linecap:round;stroke-linejoin:round;"/>
        </g>
        <g transform="matrix(-1,0,0,1,1527.75,-27.9478)">
            <path d="M752.9,572.57C732.34,580.41 689.25,617.62 698.06,632.3C696.1,638.18 698.06,643.08 704.92,643.08C713.73,654.83 733.31,638.18 745.07,630.35C735.27,644.06 731.36,655.81 737.23,656.79C740.46,657.27 754.86,646.01 768.57,627.41C793.05,623.49 807.74,615.66 807.74,615.66C816.16,618.01 828.3,621.04 835.94,622.71L839.66,561.8C813.22,562.19 774.83,564.25 752.9,572.57Z" style="fill:rgb(223,182,155);fill-rule:nonzero;stroke:black;stroke-width:4px;"/>
        </g>
        <g transform="matrix(-1,0,0,1,1527.75,-27.9478)">
            <path d="M835.16,561.8C847.8,561.31 873.06,563.17 888.14,563.46" style="fill:none;fill-rule:nonzero;stroke:black;stroke-width:4px;stroke-linecap:round;stroke-linejoin:round;"/>
        </g>
        <g transform="matrix(-1,0,0,1,1527.75,-27.9478)">
            <path d="M860.62,533.79L873.84,561.8" style="fill:none;fill-rule:nonzero;stroke:black;stroke-width:4px;stroke-linecap:round;stroke-linejoin:round;"/>
        </g>
        <g transform="matrix(-1,0,0,1,1527.75,-27.9478)">
            <path d="M698.07,632.3C705.91,623.49 723.53,606.84 736.26,598.03" style="fill:none;fill-rule:nonzero;stroke:black;stroke-width:4px;stroke-linecap:round;stroke-linejoin:round;"/>
        </g>
        <g transform="matrix(-1,0,0,1,1527.75,-27.9478)">
            <path d="M704.93,643.08C710.8,637.2 730.39,620.55 746.05,609.78" style="fill:none;fill-rule:nonzero;stroke:black;stroke-width:4px;stroke-linecap:round;stroke-linejoin:round;"/>
        </g>
        <g transform="matrix(-1,0,0,1,1527.75,-27.9478)">
            <path d="M745.07,630.35L755.85,621.53" style="fill:none;fill-rule:nonzero;stroke:black;stroke-width:4px;stroke-linecap:round;stroke-linejoin:round;"/>
        </g>
        <g transform="matrix(-1,0,0,1,1527.75,-27.9478)">
            <path d="M909.59,607.82C909.59,614.38 910.86,620.95 913.4,627.02C935.14,623 946.99,613.31 951.69,602.93C957.47,590 957.57,574.43 954.34,558.18C928.88,560.82 909.59,582.27 909.59,607.82Z" style="fill:rgb(255,160,171);fill-rule:nonzero;stroke:black;stroke-width:4px;"/>
        </g>
        <g transform="matrix(-1,0,0,1,1527.75,-27.9478)">
            <path d="M843,422.75C838.1,424.71 829.78,430.19 828.8,431.17" style="fill:none;fill-rule:nonzero;stroke:black;stroke-width:4px;stroke-linecap:round;stroke-linejoin:round;"/>
        </g>
    </g>
    <g>
        <path d="M281.33,893.54L264.03,919.45L295.54,906.59L281.33,893.54Z" style="fill:white;fill-rule:nonzero;stroke:black;stroke-width:4px;"/>
        <path d="M281.33,893.54L299.59,933.86L359.26,862.93C359.39,862.8 359.26,862.61 359.07,862.67L281.33,893.54Z" style="fill:white;fill-rule:nonzero;stroke:black;stroke-width:4px;"/>
        <path d="M246.09,868.33L281.33,893.54L359.14,862.67C359.2,862.61 359.2,862.48 359.07,862.48L246.09,868.33Z" style="fill:white;fill-rule:nonzero;stroke:black;stroke-width:4px;"/>
        <path d="M281.33,893.54L288.98,910.44" style="fill:none;fill-rule:nonzero;stroke:black;stroke-width:4px;stroke-linecap:round;stroke-linejoin:round;"/>
        <path d="M359.07,862.67L281.33,893.54" style="fill:none;fill-rule:nonzero;stroke:black;stroke-width:4px;stroke-linecap:round;stroke-linejoin:round;"/>
    </g>
</svg>
