<?xml version="1.0" encoding="UTF-8" standalone="no"?>
<!DOCTYPE svg PUBLIC "-//W3C//DTD SVG 1.1//EN" "http://www.w3.org/Graphics/SVG/1.1/DTD/svg11.dtd">
<svg width="100%" height="100%" viewBox="0 0 48 48" version="1.1" xmlns="http://www.w3.org/2000/svg" xmlns:xlink="http://www.w3.org/1999/xlink" xml:space="preserve" xmlns:serif="http://www.serif.com/" style="fill-rule:evenodd;clip-rule:evenodd;stroke-linejoin:round;stroke-miterlimit:2;">
    <g transform="matrix(1,0,0,1,370.8,-283.3)">
        <clipPath id="_clip1">
            <path d="M-326.3,303.3L-346.8,303.3L-346.8,311.8L-335,311.8C-336.1,317.2 -340.7,320.3 -346.8,320.3C-354,320.3 -359.8,314.5 -359.8,307.3C-359.8,300.1 -354,294.3 -346.8,294.3C-343.7,294.3 -340.9,295.4 -338.7,297.2L-332.3,290.8C-336.2,287.4 -341.2,285.3 -346.8,285.3C-359,285.3 -368.8,295.1 -368.8,307.3C-368.8,319.5 -359,329.3 -346.8,329.3C-335.8,329.3 -325.8,321.3 -325.8,307.3C-325.8,306 -326,304.6 -326.3,303.3Z"/>
        </clipPath>
        <g clip-path="url(#_clip1)">
            <path d="M-370.8,320.3L-370.8,294.3L-353.8,307.3L-370.8,320.3Z" style="fill:rgb(251,188,5);fill-rule:nonzero;"/>
        </g>
    </g>
    <g transform="matrix(1,0,0,1,370.8,-283.3)">
        <clipPath id="_clip2">
            <path d="M-326.3,303.3L-346.8,303.3L-346.8,311.8L-335,311.8C-336.1,317.2 -340.7,320.3 -346.8,320.3C-354,320.3 -359.8,314.5 -359.8,307.3C-359.8,300.1 -354,294.3 -346.8,294.3C-343.7,294.3 -340.9,295.4 -338.7,297.2L-332.3,290.8C-336.2,287.4 -341.2,285.3 -346.8,285.3C-359,285.3 -368.8,295.1 -368.8,307.3C-368.8,319.5 -359,329.3 -346.8,329.3C-335.8,329.3 -325.8,321.3 -325.8,307.3C-325.8,306 -326,304.6 -326.3,303.3Z"/>
        </clipPath>
        <g clip-path="url(#_clip2)">
            <path d="M-370.8,294.3L-353.8,307.3L-346.8,301.2L-322.8,297.3L-322.8,283.3L-370.8,283.3L-370.8,294.3Z" style="fill:rgb(234,67,53);fill-rule:nonzero;"/>
        </g>
    </g>
    <g transform="matrix(1,0,0,1,370.8,-283.3)">
        <g>
            <clipPath id="_clip3">
                <path d="M-326.3,303.3L-346.8,303.3L-346.8,311.8L-335,311.8C-336.1,317.2 -340.7,320.3 -346.8,320.3C-354,320.3 -359.8,314.5 -359.8,307.3C-359.8,300.1 -354,294.3 -346.8,294.3C-343.7,294.3 -340.9,295.4 -338.7,297.2L-332.3,290.8C-336.2,287.4 -341.2,285.3 -346.8,285.3C-359,285.3 -368.8,295.1 -368.8,307.3C-368.8,319.5 -359,329.3 -346.8,329.3C-335.8,329.3 -325.8,321.3 -325.8,307.3C-325.8,306 -326,304.6 -326.3,303.3Z"/>
            </clipPath>
            <g clip-path="url(#_clip3)">
                <path d="M-370.8,320.3L-340.8,297.3L-332.9,298.3L-322.8,283.3L-322.8,331.3L-370.8,331.3L-370.8,320.3Z" style="fill:rgb(52,168,83);fill-rule:nonzero;"/>
            </g>
        </g>
    </g>
    <g transform="matrix(1,0,0,1,370.8,-283.3)">
        <g>
            <clipPath id="_clip4">
                <path d="M-326.3,303.3L-346.8,303.3L-346.8,311.8L-335,311.8C-336.1,317.2 -340.7,320.3 -346.8,320.3C-354,320.3 -359.8,314.5 -359.8,307.3C-359.8,300.1 -354,294.3 -346.8,294.3C-343.7,294.3 -340.9,295.4 -338.7,297.2L-332.3,290.8C-336.2,287.4 -341.2,285.3 -346.8,285.3C-359,285.3 -368.8,295.1 -368.8,307.3C-368.8,319.5 -359,329.3 -346.8,329.3C-335.8,329.3 -325.8,321.3 -325.8,307.3C-325.8,306 -326,304.6 -326.3,303.3Z"/>
            </clipPath>
            <g clip-path="url(#_clip4)">
                <path d="M-322.8,331.3L-353.8,307.3L-357.8,304.3L-322.8,294.3L-322.8,331.3Z" style="fill:rgb(66,133,244);fill-rule:nonzero;"/>
            </g>
        </g>
    </g>
</svg>
