<?xml version="1.0" encoding="UTF-8" standalone="no"?>
<!DOCTYPE svg PUBLIC "-//W3C//DTD SVG 1.1//EN" "http://www.w3.org/Graphics/SVG/1.1/DTD/svg11.dtd">
<svg width="100%" height="100%" viewBox="0 0 512 513" version="1.1" xmlns="http://www.w3.org/2000/svg" xmlns:xlink="http://www.w3.org/1999/xlink" xml:space="preserve" xmlns:serif="http://www.serif.com/" style="fill-rule:evenodd;clip-rule:evenodd;stroke-linejoin:round;stroke-miterlimit:2;">
    <g transform="matrix(0.1,0,0,-0.1,0,513)">
        <path d="M2255,5118C2150,5106 1957,5067 1846,5035C852,4747 122,3880 11,2858C-3,2733 -3,2407 11,2282C139,1100 1091,149 2275,20C2404,6 2716,6 2845,20C4029,149 4981,1100 5109,2282C5123,2407 5123,2733 5109,2858C4981,4039 4029,4991 2848,5119C2733,5132 2369,5131 2255,5118ZM2863,4217C2944,4179 2995,4128 3037,4042L3075,3966L3081,1950L3278,1950C3507,1950 3576,1962 3689,2017C3796,2070 3913,2187 3963,2290C4012,2390 4030,2467 4030,2570C4030,2743 3972,2881 3846,3005C3712,3138 3579,3189 3373,3190L3270,3190L3270,3570L3384,3570C3685,3570 3934,3470 4131,3268C4248,3148 4324,3017 4376,2843C4408,2735 4420,2524 4400,2402C4387,2323 4343,2186 4308,2115C4183,1866 3949,1680 3660,1598C3590,1578 3556,1577 3143,1573L2700,1569L2700,4253L2755,4247C2785,4244 2834,4230 2863,4217ZM2420,3570L2420,887L2365,893C2243,905 2141,979 2083,1098L2045,1174L2039,3190L1842,3190C1613,3190 1544,3178 1431,3123C1324,3070 1207,2953 1157,2850C1108,2750 1090,2673 1090,2570C1090,2397 1148,2259 1274,2135C1408,2002 1541,1951 1748,1950L1850,1950L1850,1570L1736,1570C1552,1570 1402,1603 1255,1677C980,1815 782,2075 724,2378C706,2473 706,2668 724,2762C778,3042 944,3279 1190,3427C1297,3492 1439,3543 1570,3563C1584,3566 1781,3568 2008,3569L2420,3570Z" style="fill:rgb(63,160,29);fill-rule:nonzero;stroke:white;stroke-width:10px;"/>
    </g>
</svg>
